<svg xmlns="http://www.w3.org/2000/svg" viewBox="0 0 1200 675" fill="none">
  <rect width="1200" height="675" fill="#0f172a"/>
  <rect x="80" y="200" width="120" height="280" rx="8" fill="#22d3ee" opacity="0.3"/>
  <rect x="80" y="320" width="120" height="160" rx="0" fill="#22d3ee" opacity="0.7"/>
  <rect x="230" y="150" width="120" height="330" rx="8" fill="#22d3ee" opacity="0.3"/>
  <rect x="230" y="280" width="120" height="200" rx="0" fill="#22d3ee" opacity="0.7"/>
  <rect x="380" y="250" width="120" height="230" rx="8" fill="#22d3ee" opacity="0.3"/>
  <rect x="380" y="350" width="120" height="130" rx="0" fill="#22d3ee" opacity="0.7"/>
  <rect x="530" y="180" width="120" height="300" rx="8" fill="#22d3ee" opacity="0.3"/>
  <rect x="530" y="300" width="120" height="180" rx="0" fill="#22d3ee" opacity="0.7"/>
  <polyline points="140,320 290,280 440,350 590,300" stroke="#f472b6" stroke-width="3" fill="none"/>
  <circle cx="140" cy="320" r="6" fill="#f472b6"/>
  <circle cx="290" cy="280" r="6" fill="#f472b6"/>
  <circle cx="440" cy="350" r="6" fill="#f472b6"/>
  <circle cx="590" cy="300" r="6" fill="#f472b6"/>
  <text x="750" y="300" font-family="system-ui, sans-serif" font-size="36" font-weight="bold" fill="white">Financial News</text>
  <text x="750" y="350" font-family="system-ui, sans-serif" font-size="36" font-weight="bold" fill="white">Analysis &amp; Stock</text>
  <text x="750" y="400" font-family="system-ui, sans-serif" font-size="36" font-weight="bold" fill="white">Prediction</text>
  <text x="750" y="450" font-family="system-ui, sans-serif" font-size="18" fill="#94a3b8">NLP · Sentiment Analysis · LSTM</text>
</svg>
