<svg xmlns="http://www.w3.org/2000/svg" viewBox="0 0 1200 675" fill="none">
  <rect width="1200" height="675" fill="#0f172a"/>
  <rect x="100" y="180" width="400" height="50" rx="25" stroke="#22d3ee" stroke-width="2" fill="#22d3ee" fill-opacity="0.1"/>
  <text x="130" y="212" font-family="system-ui, sans-serif" font-size="18" fill="#94a3b8">contract termina...</text>
  <circle cx="470" cy="205" r="15" fill="#22d3ee" opacity="0.3"/>
  <rect x="100" y="250" width="400" height="40" rx="8" fill="#1e293b" stroke="#334155" stroke-width="1"/>
  <text x="120" y="276" font-family="system-ui, sans-serif" font-size="14" fill="white">contract termination rights under BGB</text>
  <rect x="370" y="258" width="110" height="24" rx="12" fill="#22d3ee" fill-opacity="0.2"/>
  <text x="382" y="275" font-family="system-ui, sans-serif" font-size="11" fill="#22d3ee">Contract Law</text>
  <rect x="100" y="298" width="400" height="40" rx="8" fill="#1e293b" stroke="#334155" stroke-width="1"/>
  <text x="120" y="324" font-family="system-ui, sans-serif" font-size="14" fill="white">contract termination notice period</text>
  <rect x="370" y="306" width="110" height="24" rx="12" fill="#f472b6" fill-opacity="0.2"/>
  <text x="386" y="323" font-family="system-ui, sans-serif" font-size="11" fill="#f472b6">Other (Misc.)</text>
  <rect x="100" y="346" width="400" height="40" rx="8" fill="#1e293b" stroke="#334155" stroke-width="1"/>
  <text x="120" y="372" font-family="system-ui, sans-serif" font-size="14" fill="white">contract termination clause validity</text>
  <rect x="370" y="354" width="110" height="24" rx="12" fill="#22d3ee" fill-opacity="0.2"/>
  <text x="382" y="371" font-family="system-ui, sans-serif" font-size="11" fill="#22d3ee">Contract Law</text>
  <text x="650" y="280" font-family="system-ui, sans-serif" font-size="36" font-weight="bold" fill="white">Law Autocomplete</text>
  <text x="650" y="330" font-family="system-ui, sans-serif" font-size="36" font-weight="bold" fill="white">Service</text>
  <text x="650" y="390" font-family="system-ui, sans-serif" font-size="18" fill="#94a3b8">FastAPI · Streamlit · Vertex AI</text>
  <text x="650" y="420" font-family="system-ui, sans-serif" font-size="18" fill="#94a3b8">Docker · Real-time LLM</text>
</svg>
